<svg xmlns="http://www.w3.org/2000/svg" width="24" height="24" viewBox="0 0 24 24">

    <g fill="none" fill-rule="evenodd">
        <g>
            <g  transform="translate(-486 -47) translate(470 39)">
                <g>
                    <g fill-rule="nonzero">
                        <path fill="#907F88" d="M19.568 17.716l-2.555-2.062c-.386-.384-1.006-.384-1.392 0-.2.202-.313.476-.313.762 0 .286.112.56.313.762l2.12 2.43c.517.523 1.355.523 1.871 0 .517-.522.517-1.37 0-1.892h-.044z" transform="translate(16 8) translate(2 2)"/>
                        <path stroke="#907F88" stroke-width="2" d="M8.578 1c2.008 0 3.934.807 5.354 2.243 1.424 1.44 2.223 3.392 2.223 5.427 0 2.12-.849 4.038-2.223 5.427-1.37 1.385-3.263 2.243-5.354 2.243-2.092 0-3.984-.858-5.355-2.243C1.85 12.708 1 10.79 1 8.67c0-2.12.849-4.038 2.223-5.427C4.593 1.858 6.486 1 8.578 1z" transform="translate(16 8) translate(2 2)"/>
                    </g>
                </g>
            </g>
        </g>
    </g>
</svg>
