<svg xmlns="http://www.w3.org/2000/svg" width="24" height="24" viewBox="0 0 24 24">
    <g fill="none" fill-rule="evenodd">
        <g>
            <g>
                <g>
                    <g  transform="translate(-781 -394) translate(451 120) translate(24 246) translate(306 28)">
                        <path fill="#907f88" fill-rule="nonzero" d="M15.94 6.697c.198 0 .38.087.522.234.134.157.2.352.181.558 0 .068-.533 6.808-.837 9.645-.19 1.741-1.313 2.798-2.997 2.827-1.294.029-2.56.039-3.805.039-1.323 0-2.616-.01-3.872-.039-1.627-.039-2.75-1.115-2.931-2.827-.313-2.847-.837-9.577-.846-9.645-.01-.206.056-.4.19-.558.133-.147.323-.234.524-.234h13.87zM11.064 0c.884 0 1.673.617 1.902 1.497l.163.73c.133.595.648 1.016 1.241 1.016h2.916c.39 0 .713.323.713.734v.38c0 .401-.324.734-.713.734H.714C.324 5.09 0 4.758 0 4.357v-.38c0-.411.324-.734.714-.734H3.63c.592 0 1.107-.421 1.24-1.015l.153-.682C5.261.617 6.041 0 6.935 0z" transform="translate(3 2)"/>
                    </g>
                </g>
            </g>
        </g>
    </g>
</svg>
